<?xml version="1.0" encoding="UTF-8"?>
<svg version="1.1" xmlns="http://www.w3.org/2000/svg" width="631" height="315">
<path d="M0 0 C208.23 0 416.46 0 631 0 C631 103.95 631 207.9 631 315 C422.77 315 214.54 315 0 315 C0 211.05 0 107.1 0 0 Z " fill="#A6E2FD" transform="translate(0,0)"/>
<path d="M0 0 C5.61 0 11.22 0 17 0 C20 8.625 20 8.625 20 12 C26.01527227 13.28898691 28.94827482 13.07270657 34.140625 9.71484375 C36 9 36 9 37.96484375 9.640625 C40.29740109 11.19864795 42.28409555 12.87309319 44.3125 14.8125 C45.03050781 15.47894531 45.74851562 16.14539063 46.48828125 16.83203125 C48 19 48 19 47.83203125 21.6171875 C47 24 47 24 45.375 26.3125 C43.37927394 30.2132373 44.20643023 32.74358032 45 37 C48.96 37.99 52.92 38.98 57 40 C57 45.61 57 51.22 57 57 C48.375 60 48.375 60 45 60 C43.67525012 66.15136734 43.67525012 66.15136734 46 71.75 C48 75 48 75 47.890625 76.90234375 C46.66988098 79.77751717 44.92707466 81.58135891 42.75 83.8125 C41.59757812 85.02873047 41.59757812 85.02873047 40.421875 86.26953125 C38 88 38 88 35.31640625 87.83203125 C33 87 33 87 31.1875 85.875 C27.69139945 84.47655978 24.67436379 85.38760604 21 86 C20.71125 86.86625 20.4225 87.7325 20.125 88.625 C19.08333333 91.75 18.04166667 94.875 17 98 C11.39 98 5.78 98 0 98 C-0.61848958 94.94010417 -1.23697917 91.88020833 -1.85546875 88.8203125 C-2.73588363 85.81409083 -2.73588363 85.81409083 -5.45703125 84.60546875 C-8.4603277 83.89039817 -10.06965963 84.04763938 -13 85 C-13.845625 85.53625 -14.69125 86.0725 -15.5625 86.625 C-18 88 -18 88 -19.8515625 87.8515625 C-22.78980112 86.68695156 -24.55605124 84.95176906 -26.8125 82.75 C-27.62332031 81.98171875 -28.43414062 81.2134375 -29.26953125 80.421875 C-31 78 -31 78 -30.8671875 75.3515625 C-30 73 -30 73 -28.3125 70.625 C-26.72584599 67.95791675 -26.72584599 67.95791675 -27.0625 64.4375 C-29.41568874 60.26248771 -30.6918257 60.03848011 -35.125 58.5625 C-37.06375 58.046875 -39.0025 57.53125 -41 57 C-41 51.39 -41 45.78 -41 40 C-37.94010417 39.38151042 -34.88020833 38.76302083 -31.8203125 38.14453125 C-28.81409083 37.26411637 -28.81409083 37.26411637 -27.60546875 34.54296875 C-26.89039817 31.5396723 -27.04763938 29.93034037 -28 27 C-28.53625 26.154375 -29.0725 25.30875 -29.625 24.4375 C-31 22 -31 22 -30.87109375 20.14453125 C-29.65693944 17.1554249 -27.75733741 15.47181611 -25.4375 13.25 C-24.61121094 12.45078125 -23.78492187 11.6515625 -22.93359375 10.828125 C-22.29550781 10.22484375 -21.65742187 9.6215625 -21 9 C-17.59687262 10.05875074 -14.98646769 11.00902154 -12 13 C-9.93089407 13.02749478 -9.93089407 13.02749478 -7.8125 12.625 C-6.554375 12.41875 -5.29625 12.2125 -4 12 C-3.79503906 11.38511719 -3.59007812 10.77023438 -3.37890625 10.13671875 C-2.25260417 6.7578125 -1.12630208 3.37890625 0 0 Z " fill="#096FB4" transform="translate(103,94)"/>
<path d="M0 0 C163.35 0 326.7 0 495 0 C495 2.31 495 4.62 495 7 C331.65 7 168.3 7 0 7 C0 4.69 0 2.38 0 0 Z " fill="#0B5485" transform="translate(62,240)"/>
<path d="M0 0 C7.33352122 4.23188859 12.48375913 10.17002738 15.1796875 18.2578125 C15.88606839 28.45980542 15.97646722 37.63617093 9.7421875 46.2421875 C4.26364425 52.40554866 -2.59790514 55.73949303 -10.734375 56.73828125 C-20.12680752 57.24673205 -27.60825935 55.80449716 -34.83984375 49.49609375 C-41.2601445 42.83249739 -43.99024487 35.56506607 -44.4453125 26.3828125 C-44.16284967 18.00915637 -41.58611033 11.09183131 -35.6640625 5.0625 C-33.46297567 3.26092551 -31.2506624 1.73153531 -28.8203125 0.2578125 C-27.7684375 -0.3815625 -26.7165625 -1.0209375 -25.6328125 -1.6796875 C-17.05078033 -4.07140138 -8.11102189 -3.80287256 0 0 Z " fill="#9FDFFC" transform="translate(125.8203125,115.7421875)"/>
<path d="M0 0 C24 0 24 0 32 4 C35.59797894 8.52053765 37.11554302 12.07835052 37.16113281 17.8034668 C37.17074036 18.77845627 37.1803479 19.75344574 37.19024658 20.75798035 C37.19449646 21.81108902 37.19874634 22.86419769 37.203125 23.94921875 C37.20882507 25.03580276 37.21452515 26.12238678 37.22039795 27.24189758 C37.22985019 29.54431179 37.23638282 31.84673954 37.24023438 34.14916992 C37.24991397 37.65633081 37.2809252 41.1628992 37.3125 44.66992188 C37.31903284 46.90885069 37.3242822 49.1477837 37.328125 51.38671875 C37.3404718 52.42970627 37.3528186 53.47269379 37.36553955 54.54728699 C37.34612061 60.95804683 37.18416567 67.58807367 32.5479126 72.55595398 C22.24343302 81.39599459 18.59752348 77 0 77 C0 51.59 0 26.18 0 0 Z " fill="#064F81" transform="translate(365,62)"/>
<path d="M0 0 C4.1796989 2.8497947 7.11864324 5.98092971 8.75 10.875 C8.85100797 12.35658196 8.8982886 13.84218287 8.91113281 15.32714844 C8.92074036 16.22528259 8.9303479 17.12341675 8.94024658 18.04876709 C8.94449646 19.0175177 8.94874634 19.98626831 8.953125 20.984375 C8.95882507 21.98454651 8.96452515 22.98471802 8.97039795 24.01519775 C8.97984744 26.13349347 8.98638173 28.25180389 8.99023438 30.37011719 C8.99992071 33.59857123 9.03093699 36.8263834 9.0625 40.0546875 C9.06903222 42.11457956 9.07428183 44.17447617 9.078125 46.234375 C9.0904718 47.19502869 9.1028186 48.15568237 9.11553955 49.14544678 C9.09329173 55.89698819 8.27802343 60.85768171 3.8125 66.1875 C-1.04673684 70.16323923 -5.1771617 70.30385819 -11.33203125 70.19140625 C-15.27061083 69.76433136 -17.38781916 68.59040234 -20.25 65.875 C-23.00075843 61.89114297 -24.37095364 59.07159444 -24.42700195 54.26098633 C-24.43983719 53.30271439 -24.45267242 52.34444244 -24.46589661 51.35713196 C-24.47328354 50.31759872 -24.48067047 49.27806549 -24.48828125 48.20703125 C-24.496353 47.13885666 -24.50442474 46.07068207 -24.51274109 44.97013855 C-24.52659096 42.70463691 -24.53730906 40.43911433 -24.54516602 38.17358398 C-24.56234421 34.71883158 -24.60621925 31.26504456 -24.65039062 27.81054688 C-24.66052048 25.60938204 -24.66903567 23.40820906 -24.67578125 21.20703125 C-24.69328934 20.17761917 -24.71079742 19.14820709 -24.72883606 18.08760071 C-24.70990874 11.78597557 -23.96581843 8.01804038 -20.25 2.875 C-14.45037544 -2.08013961 -6.95827978 -2.40863531 0 0 Z " fill="#075182" transform="translate(255.25,154.125)"/>
<path d="M0 0 C4.71372937 2.63856166 6.99572627 6.2996788 8.6875 11.375 C8.79306102 12.82051294 8.84594078 14.27023907 8.86450195 15.71948242 C8.88375481 17.03181099 8.88375481 17.03181099 8.90339661 18.37065125 C8.91078354 19.31439102 8.91817047 20.2581308 8.92578125 21.23046875 C8.933853 22.20607254 8.94192474 23.18167633 8.95024109 24.18684387 C8.96407531 26.2538577 8.97480042 28.3208943 8.98266602 30.38793945 C8.99983981 33.53316208 9.0437277 36.67732273 9.08789062 39.82226562 C9.09802143 41.83332563 9.10653632 43.84439454 9.11328125 45.85546875 C9.13078934 46.78908737 9.14829742 47.72270599 9.16633606 48.68461609 C9.1464556 54.73693364 8.1633055 59.33676142 4.6875 64.375 C-0.63397838 69.31637278 -4.21823609 69.71972736 -11.32421875 69.66015625 C-16.30551195 69.18481716 -18.92191073 66.95739469 -22.125 63.3125 C-24.13811645 60.02794158 -24.44660426 57.30256959 -24.48950195 53.53979492 C-24.50233719 52.55835007 -24.51517242 51.57690521 -24.52839661 50.5657196 C-24.53578354 49.50633682 -24.54317047 48.44695404 -24.55078125 47.35546875 C-24.558853 46.26414139 -24.56692474 45.17281403 -24.57524109 44.04841614 C-24.58907661 41.73761583 -24.59980114 39.42679514 -24.60766602 37.1159668 C-24.62488204 33.58668213 -24.66877459 30.05833339 -24.71289062 26.52929688 C-24.72301743 24.28386105 -24.73153357 22.03841727 -24.73828125 19.79296875 C-24.75578934 18.73965866 -24.77329742 17.68634857 -24.79133606 16.60112 C-24.773409 10.52915523 -24.4115422 6.96874625 -20.3125 2.375 C-13.82181884 -2.46119381 -7.50280733 -3.31908577 0 0 Z " fill="#075183" transform="translate(455.3125,154.625)"/>
<path d="M0 0 C6.27 0 12.54 0 19 0 C22.45692677 19.91468765 25.90268335 39.82836789 28.9375 59.8125 C29.0982753 60.86182205 29.0982753 60.86182205 29.26229858 61.93234253 C31 73.30839558 31 73.30839558 31 78 C29.02090602 78.02686553 27.04171029 78.04633375 25.0625 78.0625 C23.96035156 78.07410156 22.85820312 78.08570313 21.72265625 78.09765625 C19 78 19 78 18 77 C17.5347708 72.67509147 17.29499527 68.34064463 17 64 C11.72 64 6.44 64 1 64 C0.67 68.29 0.34 72.58 0 77 C-3.63 77 -7.26 77 -11 77 C-11.3200701 69.54137926 -10.09569533 62.49577029 -8.84765625 55.15625 C-8.62524143 53.81931487 -8.40344568 52.48227662 -8.18223572 51.1451416 C-7.60127983 47.64238339 -7.01292727 44.1409105 -6.42266846 40.63970947 C-5.47974718 35.03794855 -4.54897162 29.43415266 -3.61669731 23.83061218 C-3.29241898 21.88727414 -2.96522017 19.94442415 -2.63795471 18.00158691 C-2.43782272 16.80674683 -2.23769073 15.61190674 -2.03149414 14.38085938 C-1.85606583 13.33909546 -1.68063751 12.29733154 -1.49989319 11.22399902 C-0.92153965 7.49397969 -0.46818039 3.74544312 0 0 Z " fill="#095284" transform="translate(243,62)"/>
<path d="M0 0 C5.94 0 11.88 0 18 0 C20.13944796 8.88264964 21.87714046 17.71741019 23.26171875 26.74609375 C23.45723831 28.00084 23.65275787 29.25558624 23.85420227 30.5483551 C24.26233316 33.17570471 24.66857381 35.80325788 25.0715332 38.43139648 C25.58623952 41.7866216 26.10942609 45.14046082 26.63507366 48.49398708 C27.14008319 51.7231666 27.63810795 54.95342101 28.13671875 58.18359375 C28.3241716 59.38052353 28.51162445 60.57745331 28.70475769 61.81065369 C28.96051323 63.48883934 28.96051323 63.48883934 29.22143555 65.20092773 C29.37227097 66.17875717 29.52310638 67.15658661 29.67851257 68.16404724 C30 71 30 71 30 77 C26.04 77 22.08 77 18 77 C17 72 17 72 17 64 C11.72 64 6.44 64 1 64 C0.855625 65.381875 0.71125 66.76375 0.5625 68.1875 C0.21187864 71.54344726 -0.33320544 74.6660272 -1 78 C-4.63 78 -8.26 78 -12 78 C-11.37436599 69.11489202 -10.22057878 60.4420015 -8.75 51.66015625 C-8.52923225 50.32171448 -8.30886254 48.983207 -8.08886719 47.64463806 C-7.51482858 44.15910669 -6.9350013 40.6745627 -6.35400391 37.19018555 C-5.88039734 34.34364679 -5.41101825 31.49641841 -4.9418335 28.64914799 C-3.97085796 22.75763679 -2.99665944 16.86665103 -2.015625 10.97680664 C-1.84321289 9.94044571 -1.67080078 8.90408478 -1.49316406 7.83631897 C-1.03764787 5.21652299 -0.5214929 2.6074645 0 0 Z " fill="#095283" transform="translate(426,62)"/>
<path d="M0 0 C3.96 0 7.92 0 12 0 C12 10.89 12 21.78 12 33 C16.62 33 21.24 33 26 33 C26 22.11 26 11.22 26 0 C29.96 0 33.92 0 38 0 C38 25.41 38 50.82 38 77 C34.04 77 30.08 77 26 77 C26 66.11 26 55.22 26 44 C21.38 44 16.76 44 12 44 C12 55.22 12 66.44 12 78 C8.04 78 4.08 78 0 78 C0 52.26 0 26.52 0 0 Z " fill="#064F81" transform="translate(519,62)"/>
<path d="M0 0 C4.62 0 9.24 0 14 0 C14.91844297 3.18699712 15.83476588 6.37458116 16.75 9.5625 C17.00265625 10.43841797 17.2553125 11.31433594 17.515625 12.21679688 C19.78213241 20.12124148 21.8799623 28.04985862 24 36 C24.33 24.12 24.66 12.24 25 0 C28.3 0 31.6 0 35 0 C35 23.1 35 46.2 35 70 C31.04 70 27.08 70 23 70 C22.63648438 68.51113281 22.27296875 67.02226562 21.8984375 65.48828125 C21.39082677 63.42963774 20.88300237 61.3710469 20.375 59.3125 C20.13910156 58.34376953 19.90320313 57.37503906 19.66015625 56.37695312 C17.04633094 45.82112013 13.99497872 35.48242554 11 25 C10.67 39.85 10.34 54.7 10 70 C6.7 70 3.4 70 0 70 C0 46.9 0 23.8 0 0 Z " fill="#095384" transform="translate(477,154)"/>
<path d="M0 0 C11.22 0 22.44 0 34 0 C34 3.63 34 7.26 34 11 C27.07 11 20.14 11 13 11 C13 17.93 13 24.86 13 32 C18.28 32 23.56 32 29 32 C29 35.96 29 39.92 29 44 C23.72 44 18.44 44 13 44 C13 51.26 13 58.52 13 66 C19.93 66 26.86 66 34 66 C34 69.96 34 73.92 34 78 C22.78 78 11.56 78 0 78 C0 52.26 0 26.52 0 0 Z " fill="#0D5687" transform="translate(186,62)"/>
<path d="M0 0 C4.6209371 2.66082649 6.89459424 6.37128273 8.5625 11.375 C8.69229439 14.38103796 8.60613173 17.36441031 8.5625 20.375 C4.6025 20.375 0.6425 20.375 -3.4375 20.375 C-3.6328125 18.35677083 -3.828125 16.33854167 -4.0234375 14.3203125 C-4.30124749 12.14831755 -4.30124749 12.14831755 -6.4375 10.375 C-10.00342619 10.53917032 -10.00342619 10.53917032 -13.4375 11.375 C-15.08662547 14.67325095 -15.05381465 17.82356312 -14.4375 21.375 C-11.45096231 28.0563452 -6.29288691 32.42014247 -0.84765625 37.1015625 C3.93082763 41.60898165 8.2479663 47.29211065 8.765625 54.01171875 C8.9736848 67.5529442 8.9736848 67.5529442 4.16796875 72.9375 C-1.25992352 77.77450779 -6.53311777 77.73801422 -13.52734375 77.64453125 C-18.39095475 77.194076 -20.71717518 75.28341367 -23.90234375 71.75 C-28.23856454 65.98438787 -27.96065264 60.35036848 -27.4375 53.375 C-23.8075 53.375 -20.1775 53.375 -16.4375 53.375 C-16.2421875 55.62109375 -16.046875 57.8671875 -15.8515625 60.11328125 C-15.54185574 62.64724441 -15.54185574 62.64724441 -13.4375 65.375 C-9.9375 65.875 -9.9375 65.875 -6.4375 65.375 C-3.9639975 61.66474626 -3.77488728 58.6778925 -4.4375 54.375 C-7.16748363 49.21836425 -11.10509374 45.52726106 -15.359375 41.6015625 C-22.71543648 34.60500779 -27.46978872 27.44857362 -27.75 17.125 C-27.67048342 11.7034153 -26.86090255 7.6615267 -23.4375 3.375 C-16.92179732 -2.91073671 -8.15754254 -3.60025621 0 0 Z " fill="#075082" transform="translate(495.4375,62.625)"/>
<path d="M0 0 C4.07019039 2.39422964 7.27116766 5.11461997 8.81640625 9.76953125 C9.46836153 13.46851962 9.24262377 17.1265838 9.1875 20.875 C5.5575 20.875 1.9275 20.875 -1.8125 20.875 C-2.4725 17.905 -3.1325 14.935 -3.8125 11.875 C-6.67028033 11.19006627 -6.67028033 11.19006627 -9.8125 10.875 C-12.96881323 12.47048702 -12.96881323 12.47048702 -13.2109375 14.828125 C-13.20320313 15.58609375 -13.19546875 16.3440625 -13.1875 17.125 C-13.19523437 17.87265625 -13.20296875 18.6203125 -13.2109375 19.390625 C-12.0643706 26.53980683 -7.31854112 30.68414477 -2.3125 35.4375 C3.96609286 41.43505108 8.75022402 46.0542115 9.42578125 55.046875 C9.7102489 68.76121005 9.7102489 68.76121005 5.1875 73.875 C0.18942276 78.08011307 -5.55753144 78.56901388 -11.90625 78.3125 C-16.46310395 77.62652199 -19.59224897 76.18814289 -22.8125 72.875 C-27.01600439 66.80857889 -27.21767134 61.06679126 -26.8125 53.875 C-22.8525 53.875 -18.8925 53.875 -14.8125 53.875 C-14.6171875 56.4140625 -14.421875 58.953125 -14.2265625 61.4921875 C-14.01681868 64.05441903 -14.01681868 64.05441903 -11.8125 65.875 C-9.12410615 66.14491906 -6.52108064 65.96237357 -3.8125 65.875 C-2.97872232 57.21461804 -2.97872232 57.21461804 -6.375 49.5 C-9.01479422 46.48131766 -11.97852504 43.96401938 -15.078125 41.43359375 C-20.77461543 36.31445033 -25.39006491 29.50418456 -26.09375 21.79296875 C-26.26817386 15.43376566 -26.22032006 10.32751209 -22.8125 4.875 C-16.30776927 -1.91409054 -8.75374202 -2.58307142 0 0 Z " fill="#065082" transform="translate(311.8125,62.125)"/>
<path d="M0 0 C3.63 0 7.26 0 11 0 C11.01981934 1.71622559 11.03963867 3.43245117 11.06005859 5.20068359 C11.12776902 10.86458308 11.20453942 16.52831092 11.28752708 22.19200706 C11.33752038 25.62666136 11.38384978 29.06128445 11.421875 32.49609375 C11.4657274 36.44288688 11.52539148 40.38936366 11.5859375 44.3359375 C11.59748871 45.57242035 11.60903992 46.8089032 11.62094116 48.08285522 C11.64081085 49.22388702 11.66068054 50.36491882 11.68115234 51.54052734 C11.69447601 52.548685 11.70779968 53.55684265 11.7215271 54.59555054 C11.76897232 57.18301324 11.76897232 57.18301324 14 59 C17.04182893 59.25005386 17.04182893 59.25005386 20 59 C21.73054609 57.26945391 21.16964628 54.92196747 21.20532227 52.56225586 C21.22526749 51.40112778 21.24521271 50.23999969 21.26576233 49.04368591 C21.28247482 47.780168 21.29918732 46.51665009 21.31640625 45.21484375 C21.33718735 43.92888809 21.35796844 42.64293243 21.37937927 41.31800842 C21.43466176 37.89364096 21.48404361 34.4692125 21.53222656 31.04473877 C21.58239665 27.55255686 21.6381061 24.0604639 21.69335938 20.56835938 C21.80101642 13.71231498 21.90193283 6.8561882 22 0 C25.63 0 29.26 0 33 0 C33.09067331 7.42405144 33.16392899 14.84779603 33.20724869 22.27228546 C33.22804893 25.72047132 33.25622536 29.16825594 33.30175781 32.61621094 C33.35387244 36.58784035 33.37300789 40.55931207 33.390625 44.53125 C33.41127014 45.75863892 33.43191528 46.98602783 33.45318604 48.25061035 C33.45502888 55.32983121 32.85149272 59.99846285 29 66 C24.30145567 70.41378407 19.19759189 70.40707778 13.01953125 70.33984375 C9.36897045 69.92897856 7.29228205 68.96134292 4.40234375 66.77734375 C-0.92554912 60.02472187 -0.39637145 52.85999642 -0.29296875 44.62890625 C-0.28660149 42.71270729 -0.28660149 42.71270729 -0.28010559 40.75779724 C-0.2662045 37.38251703 -0.2393115 34.00785948 -0.20599365 30.63275146 C-0.17515321 27.18035221 -0.1615706 23.7278883 -0.14648438 20.27539062 C-0.11347314 13.5167346 -0.06171958 6.75845238 0 0 Z " fill="#0B5586" transform="translate(317,154)"/>
<path d="M0 0 C3.80332088 2.59317333 6.74257355 5.47267539 8.5625 9.8125 C8.83763821 12.83902033 8.80838766 15.83884144 8.75 18.875 C5.12 18.875 1.49 18.875 -2.25 18.875 C-2.47786458 16.82421875 -2.70572917 14.7734375 -2.93359375 12.72265625 C-3.06886614 10.86359771 -3.06886614 10.86359771 -4.25 9.875 C-7.25 9.70833333 -7.25 9.70833333 -10.25 9.875 C-11.86445939 11.48945939 -11.57511732 13.20687417 -11.6875 15.4375 C-11.55417289 23.98255556 -5.93496643 28.23692607 -0.125 33.875 C5.73719476 39.67539451 8.85907851 44.01617867 9.25 52.375 C9.00761924 58.60764817 7.27212929 63.50572703 2.6875 67.8125 C-2.62659812 70.72668284 -8.35831499 70.40564183 -14.25 69.875 C-18.69600524 68.04896213 -20.51043663 65.85829396 -22.625 61.6875 C-24.53391825 56.93886866 -24.57200974 52.94665348 -24.25 47.875 C-20.62 47.875 -16.99 47.875 -13.25 47.875 C-13.02213542 50.44661458 -12.79427083 53.01822917 -12.56640625 55.58984375 C-12.48955024 57.83659732 -12.48955024 57.83659732 -11.25 58.875 C-8.57941149 59.01615161 -5.92567762 58.91747107 -3.25 58.875 C-2.67591004 53.6869278 -2.39707039 49.30016947 -5.5625 44.9375 C-9.30380845 40.52490415 -13.55676969 36.55243163 -17.76171875 32.5859375 C-23.17210251 26.69142207 -23.73789691 21.74721692 -23.53515625 14.0078125 C-23.04162407 8.58571925 -21.79024946 5.33823699 -17.75 1.5 C-12.24294608 -2.07958505 -6.09621865 -2.11022953 0 0 Z " fill="#095284" transform="translate(210.25,154.125)"/>
<path d="M0 0 C4.1796989 2.8497947 7.11864324 5.98092971 8.75 10.875 C8.87781786 13.54894964 8.79391871 16.19595857 8.75 18.875 C5.45 18.875 2.15 18.875 -1.25 18.875 C-1.73828125 16.82421875 -2.2265625 14.7734375 -2.71484375 12.72265625 C-3.08887569 10.87530102 -3.08887569 10.87530102 -4.25 9.875 C-6.58297433 9.83407063 -8.91705225 9.83258277 -11.25 9.875 C-11.36003792 11.39413466 -11.43649757 12.91570964 -11.5 14.4375 C-11.56960938 15.70787109 -11.56960938 15.70787109 -11.640625 17.00390625 C-10.69972062 23.91955347 -6.1364903 28.29754574 -1.25 32.8125 C4.98224177 38.85995073 8.80684069 43.40102392 9.25 52.375 C8.96852992 59.13966424 7.01650179 63.60849821 2.25 68.375 C-3.45450074 70.81978603 -9.4998015 70.98690096 -15.4765625 69.21484375 C-19.23456899 67.36782354 -21.42064703 64.89625313 -22.828125 60.95703125 C-23.64628353 56.9192674 -23.41863622 52.97848133 -23.25 48.875 C-19.95 48.875 -16.65 48.875 -13.25 48.875 C-12.59 52.175 -11.93 55.475 -11.25 58.875 C-8.94 58.875 -6.63 58.875 -4.25 58.875 C-2.60729331 55.58958662 -2.61638858 52.41318656 -3.25 48.875 C-5.86928467 43.69854808 -10.25682347 39.85915303 -14.375 35.875 C-20.68641714 29.61110859 -23.38843569 25.36309479 -23.8125 16.375 C-23.61106238 10.38744036 -22.45947131 6.21810532 -18.25 1.875 C-12.64596409 -2.20066248 -6.37939012 -2.20825043 0 0 Z " fill="#075182" transform="translate(548.25,154.125)"/>
<path d="M0 0 C11.22 0 22.44 0 34 0 C34 3.3 34 6.6 34 10 C30.04 10 26.08 10 22 10 C22 29.8 22 49.6 22 70 C18.37 70 14.74 70 11 70 C11 50.2 11 30.4 11 10 C7.37 10 3.74 10 0 10 C0 6.7 0 3.4 0 0 Z " fill="#085283" transform="translate(361,154)"/>
<path d="M0 0 C3.96 0 7.92 0 12 0 C12 25.74 12 51.48 12 78 C8.04 78 4.08 78 0 78 C0 52.26 0 26.52 0 0 Z " fill="#054F81" transform="translate(336,62)"/>
<path d="M0 0 C3.3 0 6.6 0 10 0 C10.33 19.14 10.66 38.28 11 58 C16.61 58.33 22.22 58.66 28 59 C28 61.97 28 64.94 28 68 C18.76 68 9.52 68 0 68 C0 45.56 0 23.12 0 0 Z " fill="#044E80" transform="translate(278,155)"/>
<path d="M0 0 C3.63 0 7.26 0 11 0 C11 23.1 11 46.2 11 70 C7.37 70 3.74 70 0 70 C0 46.9 0 23.8 0 0 Z " fill="#095283" transform="translate(406,154)"/>
<path d="M0 0 C9 0 9 0 11.53149414 1.34179688 C13.87924431 5.59155644 13.55001767 9.75578023 13.49609375 14.53125 C13.49754898 15.55931763 13.49900421 16.58738525 13.50050354 17.64660645 C13.4988447 19.81863236 13.48728521 21.99067005 13.46655273 24.16259766 C13.4376061 27.48781243 13.44594307 30.81143228 13.45898438 34.13671875 C13.45274668 36.24740359 13.44435549 38.35808338 13.43359375 40.46875 C13.43652939 41.46362427 13.43946503 42.45849854 13.44248962 43.48352051 C13.42346336 44.87516418 13.42346336 44.87516418 13.40405273 46.29492188 C13.39864975 47.10892456 13.39324677 47.92292725 13.38768005 48.76159668 C13 51 13 51 10 55 C6.7 55 3.4 55 0 55 C0 36.85 0 18.7 0 0 Z " fill="#A7E1FC" transform="translate(377,73)"/>
<path d="M0 0 C3 0.5 3 0.5 4.66259766 1.92773438 C6.72919638 5.90248504 6.4279911 9.74036388 6.3984375 14.15625 C6.40274277 15.56517517 6.40274277 15.56517517 6.40713501 17.00256348 C6.40917432 18.98625289 6.40365379 20.96996246 6.39111328 22.95361328 C6.37505784 25.9890644 6.3909666 29.02318402 6.41015625 32.05859375 C6.40817379 33.9869821 6.40433007 35.91536963 6.3984375 37.84375 C6.40754654 39.20481873 6.40754654 39.20481873 6.4168396 40.59338379 C6.34724173 46.83213967 6.34724173 46.83213967 4.66259766 50.07226562 C3 51.5 3 51.5 0 52 C-3 51.5 -3 51.5 -4.66259766 50.07226562 C-6.72919638 46.09751496 -6.4279911 42.25963612 -6.3984375 37.84375 C-6.40130768 36.90446655 -6.40417786 35.96518311 -6.40713501 34.99743652 C-6.40917432 33.01374711 -6.40365379 31.03003754 -6.39111328 29.04638672 C-6.37505784 26.0109356 -6.3909666 22.97681598 -6.41015625 19.94140625 C-6.40817379 18.0130179 -6.40433007 16.08463037 -6.3984375 14.15625 C-6.40451019 13.24887085 -6.41058289 12.3414917 -6.4168396 11.40661621 C-6.34724173 5.16786033 -6.34724173 5.16786033 -4.66259766 1.92773438 C-3 0.5 -3 0.5 0 0 Z " fill="#9FDAF6" transform="translate(447,162.5)"/>
<path d="M0 0 C2.98477831 0.44771675 3.67123598 1.02981207 5.5 3.375 C5.8742218 5.4239502 5.8742218 5.4239502 5.87231445 7.79882812 C5.87854324 8.68985229 5.88477203 9.58087646 5.89118958 10.49890137 C5.88197983 11.45832642 5.87277008 12.41775146 5.86328125 13.40625 C5.86377975 14.39371216 5.86427826 15.38117432 5.86479187 16.39855957 C5.86245107 18.48659273 5.85272223 20.5746287 5.83618164 22.66259766 C5.8125917 25.86256078 5.81562044 29.0616908 5.82226562 32.26171875 C5.81668883 34.28906748 5.80957895 36.31641269 5.80078125 38.34375 C5.80214836 39.78288757 5.80214836 39.78288757 5.80354309 41.25109863 C5.79401108 42.1421228 5.78447906 43.03314697 5.7746582 43.95117188 C5.77005081 44.73488159 5.76544342 45.51859131 5.76069641 46.3260498 C5.5 48.375 5.5 48.375 3.5 51.375 C0 51.6875 0 51.6875 -3.5 51.375 C-5.93574105 48.93925895 -5.75551734 48.31175762 -5.7746582 44.97290039 C-5.78419022 44.06177994 -5.79372223 43.15065948 -5.80354309 42.21192932 C-5.80263168 41.22546921 -5.80172028 40.23900909 -5.80078125 39.22265625 C-5.80506638 38.2115831 -5.8093515 37.20050995 -5.81376648 36.15879822 C-5.81951661 34.01773834 -5.82000504 31.87665892 -5.81567383 29.7355957 C-5.81251612 26.45425157 -5.83595714 23.17381053 -5.86132812 19.89257812 C-5.86360121 17.81510531 -5.86430457 15.73763006 -5.86328125 13.66015625 C-5.872491 12.67572037 -5.88170074 11.69128448 -5.89118958 10.67701721 C-5.88496078 9.7627446 -5.87873199 8.84847198 -5.87231445 7.90649414 C-5.87294388 7.10200333 -5.8735733 6.29751251 -5.8742218 5.46864319 C-5.23263007 1.87915657 -3.52584587 0.52887688 0 0 Z " fill="#A4E0FC" transform="translate(247.5,162.625)"/>
<path d="M0 0 C0.33 0 0.66 0 1 0 C1.08040527 0.66942627 1.16081055 1.33885254 1.24365234 2.02856445 C1.61737399 5.12363009 1.99616289 8.21805649 2.375 11.3125 C2.50132812 12.36501953 2.62765625 13.41753906 2.7578125 14.50195312 C3.50845007 20.60088337 4.42140687 26.62135641 5.61962891 32.64916992 C6 35 6 35 6 39 C2.37 39 -1.26 39 -5 39 C-5.27672333 30.85897802 -4.21307073 23.05001392 -3.0625 15 C-2.8777938 13.65240691 -2.69354559 12.30475097 -2.50976562 10.95703125 C-1.13276619 1.13276619 -1.13276619 1.13276619 0 0 Z " fill="#9DD9F6" transform="translate(252,76)"/>
<path d="M0 0 C2.33593148 3.50389723 2.54799568 5.73865281 3.0703125 9.8984375 C3.19924393 10.90639877 3.19924393 10.90639877 3.33078003 11.9347229 C3.51087385 13.35477655 3.68714694 14.77531925 3.85986328 16.19628906 C4.12331886 18.36118555 4.39849049 20.52433658 4.67578125 22.6875 C5.36344402 28.15623741 6 33.47596854 6 39 C2.37 39 -1.26 39 -5 39 C-4.22999449 30.58667658 -3.11183522 22.24058234 -1.9375 13.875 C-1.74917358 12.52346193 -1.56102135 11.17189957 -1.37304688 9.8203125 C-0.91707009 6.54663303 -0.4593472 3.27320795 0 0 Z " fill="#A2DCF7" transform="translate(434,76)"/>
<path d="M0 0 C0.99 0.33 1.98 0.66 3 1 C1.80929241 3.92264591 0.7076823 5.26512535 -1.6875 7.4375 C-4.22885524 9.72890346 -4.22885524 9.72890346 -4.1875 12.4375 C-2.74323024 15.55408212 -0.84651993 17.33361794 1.72265625 19.5703125 C3 21 3 21 3 24 C-1.57196387 23.52002515 -3.66138437 21.90638385 -6.875 18.6875 C-7.67679687 17.90761719 -8.47859375 17.12773437 -9.3046875 16.32421875 C-11 14 -11 14 -11.07421875 12.03515625 C-9.50803094 9.06794225 -7.34879885 7.06973054 -4.9375 4.75 C-4.01839844 3.85796875 -3.09929687 2.9659375 -2.15234375 2.046875 C-1.44207031 1.37140625 -0.73179688 0.6959375 0 0 Z " fill="#0E73B6" transform="translate(98,131)"/>
<path d="M0 0 C4.31730413 0.47409648 6.33647461 3.03396703 9.25 6.0625 C10.14203125 6.98160156 11.0340625 7.90070313 11.953125 8.84765625 C12.62859375 9.55792969 13.3040625 10.26820313 14 11 C12.4700928 14.60561914 10.31303068 16.9859199 7.5625 19.75 C6.78003906 20.54921875 5.99757813 21.3484375 5.19140625 22.171875 C3 24 3 24 0 24 C0.71053983 19.77319899 2.66011671 18.24211302 5.8203125 15.5625 C7.22225477 14.05904925 7.22225477 14.05904925 6.87109375 12 C5.61366719 9.11299373 3.62173057 7.59246318 1.27734375 5.5625 C0 4 0 4 0 0 Z " fill="#0E73B7" transform="translate(121,131)"/>
<path d="M0 0 C0.99 0 1.98 0 3 0 C2.4138281 5.92909506 1.19595619 11.31580266 -0.5625 17 C-0.79646484 17.77472656 -1.03042969 18.54945313 -1.27148438 19.34765625 C-1.84190038 21.2335214 -2.42012803 23.1170209 -3 25 C-3.99 25 -4.98 25 -6 25 C-6.29757591 19.24686565 -5.27552581 14.59913207 -3.5625 9.125 C-3.33240234 8.35414063 -3.10230469 7.58328125 -2.86523438 6.7890625 C-1.1538302 1.1538302 -1.1538302 1.1538302 0 0 Z " fill="#1275B8" transform="translate(112,131)"/>
</svg>
